<?xml version="1.0" standalone="no"?>
<!DOCTYPE svg PUBLIC "-//W3C//DTD SVG 20010904//EN"
 "http://www.w3.org/TR/2001/REC-SVG-20010904/DTD/svg10.dtd">
<svg version="1.0" xmlns="http://www.w3.org/2000/svg"
 width="16.000000pt" height="16.000000pt" viewBox="0 0 16.000000 16.000000"
 preserveAspectRatio="xMidYMid meet">
<metadata>
Created by potrace 1.11, written by Peter Selinger 2001-2013
</metadata>
<g transform="translate(0.000000,16.000000) scale(0.005333,-0.005333)"
fill="#000000" stroke="none">
<path d="M333 2985 c-166 -45 -287 -171 -322 -333 -16 -75 -16 -2229 0 -2304
26 -121 114 -240 218 -292 113 -58 69 -56 1268 -56 778 0 1118 3 1155 11 166
36 301 171 337 337 16 75 16 2229 0 2304 -36 166 -171 301 -337 337 -38 8
-376 11 -1160 10 -920 0 -1116 -3 -1159 -14z m1327 -652 c47 -16 93 -33 102
-37 13 -6 17 -1 20 26 l3 33 168 3 167 2 0 -260 0 -260 -166 0 -166 0 -66 61
c-102 95 -209 135 -341 127 -119 -7 -194 -67 -194 -152 0 -106 104 -167 369
-216 182 -33 268 -66 380 -146 125 -88 194 -196 216 -336 38 -247 -127 -467
-399 -533 -108 -26 -298 -17 -413 20 -47 15 -97 34 -112 41 l-28 15 0 -41 0
-40 -170 0 -170 0 0 260 0 260 166 0 166 0 61 -55 c115 -102 228 -143 367
-133 139 10 217 81 190 171 -16 56 -75 110 -147 137 -32 12 -123 35 -203 51
-176 36 -223 50 -321 100 -133 69 -231 172 -270 286 -94 275 68 553 372 638
40 11 91 14 194 12 125 -3 149 -7 225 -34z"/>
<path d="M1300 2210 c-68 -15 -160 -64 -209 -112 -65 -65 -84 -108 -89 -210
-4 -76 -1 -92 21 -140 44 -96 151 -179 282 -222 28 -9 115 -29 195 -45 169
-34 238 -58 319 -112 104 -69 158 -173 149 -283 -9 -102 -67 -178 -177 -230
-60 -28 -77 -31 -181 -34 -183 -6 -296 31 -424 137 -45 39 -52 41 -112 41
l-64 0 0 -100 c0 -93 1 -100 20 -100 18 0 20 7 20 85 l0 85 36 0 c28 0 46 -9
84 -43 94 -85 210 -130 366 -143 261 -22 464 116 464 316 0 102 -22 160 -85
229 -87 93 -233 159 -415 186 -221 33 -382 118 -440 231 -35 68 -36 189 -2
252 31 59 93 116 160 149 48 22 74 28 160 31 175 7 285 -27 410 -129 58 -47
64 -49 121 -49 l61 0 0 100 c0 82 -3 100 -15 100 -12 0 -15 -16 -15 -85 l0
-85 -36 0 c-27 0 -48 10 -92 46 -64 53 -143 95 -222 118 -66 20 -228 29 -290
16z"/>
</g>
</svg>
