<?xml version="1.0" encoding="UTF-8" standalone="no"?>
<!-- Created with Inkscape (http://www.inkscape.org/) -->

<svg
   xmlns:dc="http://purl.org/dc/elements/1.1/"
   xmlns:cc="http://creativecommons.org/ns#"
   xmlns:rdf="http://www.w3.org/1999/02/22-rdf-syntax-ns#"
   xmlns:svg="http://www.w3.org/2000/svg"
   xmlns="http://www.w3.org/2000/svg"
   xmlns:sodipodi="http://sodipodi.sourceforge.net/DTD/sodipodi-0.dtd"
   xmlns:inkscape="http://www.inkscape.org/namespaces/inkscape"
   width="210mm"
   height="297mm"
   viewBox="0 0 210 297"
   version="1.1"
   id="svg3722"
   inkscape:export-filename="/home/miki/signal-to-noise.png"
   inkscape:export-xdpi="507.99997"
   inkscape:export-ydpi="507.99997"
   inkscape:version="0.92.1 r"
   sodipodi:docname="signal-to-noise.svg">
  <defs
     id="defs3716" />
  <sodipodi:namedview
     id="base"
     pagecolor="#ffffff"
     bordercolor="#666666"
     borderopacity="1.0"
     inkscape:pageopacity="0.0"
     inkscape:pageshadow="2"
     inkscape:zoom="7.919596"
     inkscape:cx="21.062033"
     inkscape:cy="314.09132"
     inkscape:document-units="mm"
     inkscape:current-layer="layer2"
     showgrid="false"
     inkscape:window-width="3200"
     inkscape:window-height="1752"
     inkscape:window-x="0"
     inkscape:window-y="48"
     inkscape:window-maximized="1" />
  <metadata
     id="metadata3719">
    <rdf:RDF>
      <cc:Work
         rdf:about="">
        <dc:format>image/svg+xml</dc:format>
        <dc:type
           rdf:resource="http://purl.org/dc/dcmitype/StillImage" />
        <dc:title />
      </cc:Work>
    </rdf:RDF>
  </metadata>
  <g
     inkscape:groupmode="layer"
     id="layer2"
     inkscape:label="Layer 2"
     style="display:inline">
    <rect
       id="rect3819"
       width="15"
       height="15"
       x="19.158667"
       y="193.50633"
       style="fill:#1abf93;fill-opacity:1;stroke-width:0.37061623"
       ry="2.1969929"
       rx="2.1969929" />
  </g>
  <g
     inkscape:label="Layer 1"
     inkscape:groupmode="layer"
     id="layer1">
    <path
       id="path3806"
       d="m 26.78715,200.1749 q 1.063467,0.15891 1.69299,0.51951 0.629523,0.3606 0.959564,0.78232 0.330041,0.42172 0.42172,0.83122 0.09168,0.40949 0.09168,0.66619 0,0.5134 -0.213916,0.95346 -0.213916,0.44005 -0.58674,0.75787 -0.372824,0.31782 -0.88011,0.50117 -0.507286,0.18336 -1.106249,0.18336 -0.623412,0 -1.118473,-0.12835 -0.495062,-0.12835 -0.886222,-0.33615 v 0.37893 h -1.711327 v -2.56699 h 1.711325 q 0.220027,0.24448 0.433943,0.42172 0.213915,0.17725 0.440055,0.29337 0.226139,0.11613 0.501174,0.17114 0.275034,0.055 0.629523,0.055 0.464502,0 0.770096,-0.19558 0.305594,-0.19558 0.305594,-0.48895 0,-0.26893 -0.158909,-0.45839 -0.158909,-0.18948 -0.403384,-0.31783 -0.244475,-0.12834 -0.550069,-0.2078 -0.305593,-0.0795 -0.598963,-0.12835 -1.026795,-0.15891 -1.650207,-0.48895 -0.623411,-0.33004 -0.959564,-0.7212 -0.336153,-0.39116 -0.446167,-0.80066 -0.110014,-0.40949 -0.110014,-0.72731 0,-0.52562 0.213916,-0.9779 0.213916,-0.45228 0.592852,-0.78843 0.378936,-0.33615 0.88011,-0.52562 0.501174,-0.18947 1.087914,-0.18947 0.623411,0 1.087913,0.11613 0.464503,0.11612 0.843439,0.32393 v -0.35449 h 1.711325 v 2.56698 H 28.05842 q -0.207803,-0.23225 -0.403383,-0.40949 -0.19558,-0.17725 -0.415608,-0.29337 -0.220027,-0.11613 -0.482838,-0.17725 -0.262811,-0.0611 -0.617299,-0.0611 -0.501174,0 -0.78232,0.24447 -0.281147,0.24448 -0.281147,0.52562 0,0.7701 1.711325,1.05124 z m 1.85801,3.92383 q 0.183357,-0.15891 0.360601,-0.43395 0.177244,-0.27503 0.177244,-0.69064 0,-0.23225 -0.08557,-0.53173 -0.08556,-0.29948 -0.354485,-0.59285 -0.268922,-0.29337 -0.763984,-0.54396 -0.495062,-0.25059 -1.314053,-0.37282 -2.359184,-0.36672 -2.359184,-1.80912 0,-0.28114 0.122238,-0.55618 0.122237,-0.27503 0.3606,-0.49506 0.238363,-0.22003 0.580628,-0.35449 0.342265,-0.13446 0.770097,-0.13446 0.78232,0 1.295717,0.24447 0.513398,0.24448 0.953453,0.69676 h 0.623411 v -1.0268 H 28.84074 v 0.85567 h -0.378936 q -0.317817,-0.34227 -0.702865,-0.55007 -0.385049,-0.20781 -0.788432,-0.3056 -0.342265,-0.0856 -0.831215,-0.0856 -0.427832,0 -0.788432,0.13446 -0.360601,0.13446 -0.635635,0.3606 -0.275035,0.22614 -0.427831,0.53784 -0.152797,0.31171 -0.152797,0.67842 0,0.50118 0.232251,0.84344 0.232251,0.34227 0.592852,0.57452 0.3606,0.23225 0.806767,0.3606 0.446167,0.12835 0.873998,0.18947 0.770097,0.12223 1.240711,0.34837 0.470614,0.22614 0.721201,0.50118 0.250587,0.27503 0.330042,0.55006 0.07945,0.27504 0.07945,0.48284 0,0.31782 -0.140573,0.58674 -0.140573,0.26893 -0.385048,0.45839 -0.244475,0.18947 -0.580628,0.29949 -0.336154,0.11001 -0.739537,0.11001 -0.818992,0 -1.344613,-0.24448 -0.525617,-0.24447 -0.99012,-0.69675 h -0.611187 v 1.0268 h 0.171132 v -0.85567 h 0.39116 q 0.244475,0.2567 0.495062,0.43395 0.250587,0.17724 0.537845,0.28725 0.287258,0.11002 0.6173,0.16502 0.330041,0.055 0.733425,0.055 0.440055,0 0.818991,-0.12834 0.378936,-0.12835 0.660082,-0.37283 z"
       inkscape:connector-curvature="0"
       style="fill:#ffffff;fill-opacity:1;stroke-width:0.26458332" />
  </g>
</svg>
